<svg width="192" height="102" viewBox="0 0 192 102" fill="none" xmlns="http://www.w3.org/2000/svg">
<rect width="192" height="102" fill="white"/>
<path d="M25.8311 60.1211V56.6055C27.9307 57.3867 30.3037 57.7773 32.9502 57.7773C36.1631 57.7773 37.7695 56.7031 37.7695 54.5547C37.7695 52.9922 36.7832 52.2109 34.8105 52.2109H31.5293C27.2422 52.2109 25.0986 50.2578 25.0986 46.3516C25.0986 42.0547 28.1504 39.9062 34.2539 39.9062C36.5977 39.9062 38.8193 40.248 40.9189 40.9316V44.4473C38.8193 43.666 36.5977 43.2754 34.2539 43.2754C30.7383 43.2754 28.9805 44.3008 28.9805 46.3516C28.9805 47.9141 29.8301 48.6953 31.5293 48.6953H34.8105C39.3711 48.6953 41.6514 50.6484 41.6514 54.5547C41.6514 58.9492 38.751 61.1465 32.9502 61.1465C30.3037 61.1465 27.9307 60.8047 25.8311 60.1211ZM55.9336 60.5605C54.6641 60.8535 53.3457 61 51.9785 61C46.5098 61 43.7754 58.3389 43.7754 53.0166C43.7754 48.085 46.5098 45.6191 51.9785 45.6191C53.3457 45.6191 54.6641 45.7656 55.9336 46.0586V49.1348C54.6641 48.8418 53.4434 48.6953 52.2715 48.6953C49.1953 48.6953 47.6572 50.1357 47.6572 53.0166C47.6572 56.2881 49.1953 57.9238 52.2715 57.9238C53.4434 57.9238 54.6641 57.7773 55.9336 57.4844V60.5605ZM58.4971 61V45.6191H61.5L61.9834 47.582C63.3311 46.2734 64.7568 45.6191 66.2607 45.6191V48.7539C64.8154 48.7539 63.5215 49.3545 62.3789 50.5557V61H58.4971ZM82.3008 45.6191V61H79.2686L78.7998 59.0371C77.0322 60.3457 75.1572 61 73.1748 61C70.0303 61 68.458 59.1396 68.458 55.4189V45.6191H72.3398V55.3164C72.3398 57.0156 73.082 57.8652 74.5664 57.8652C75.8262 57.8652 77.1104 57.3623 78.4189 56.3564V45.6191H82.3008ZM89.8594 57.4404C90.748 57.7236 91.7783 57.8652 92.9502 57.8652C95.2939 57.8652 96.4658 56.21 96.4658 52.8994C96.4658 50.1943 95.4551 48.8418 93.4336 48.8418C92.125 48.8418 90.9336 49.1055 89.8594 49.6328V57.4404ZM85.9775 40.0527H89.8594V46.791C91.0215 46.0098 92.3154 45.6191 93.7412 45.6191C98.1162 45.6191 100.304 48.0801 100.304 53.002C100.304 58.334 97.7988 61 92.7891 61C90.6797 61 88.4092 60.79 85.9775 60.3701V40.0527ZM117.223 40.0527V43.1289H113.341V63.4902H117.223V66.5664H109.459V40.0527H117.223ZM137.525 45.6191C142.193 45.6191 144.527 48.002 144.527 52.7676C144.527 53.4023 144.483 54.0371 144.396 54.6719H134.186C134.186 56.8398 135.777 57.9238 138.961 57.9238C140.514 57.9238 142.066 57.7773 143.619 57.4844V60.5605C142.262 60.8535 140.611 61 138.668 61C133.092 61 130.304 58.3779 130.304 53.1338C130.304 48.124 132.711 45.6191 137.525 45.6191ZM134.186 51.9766H140.748V51.8594C140.748 49.7305 139.674 48.666 137.525 48.666C135.475 48.666 134.361 49.7695 134.186 51.9766ZM147.223 43.1289H150.094L150.68 45.6191H154.547V48.6953H151.104V55.7705C151.104 57.2061 151.725 57.9238 152.965 57.9238H154.547V61H151.09C148.512 61 147.223 59.6182 147.223 56.8545V43.1289ZM163.863 40.0527V66.5664H156.1V63.4902H159.981V43.1289H156.1V40.0527H163.863Z" fill="black"/>
<path d="M129.955 37V67H117.955V37H129.955Z" fill="url(#paint0_linear_1913_1502)"/>
<defs>
<linearGradient id="paint0_linear_1913_1502" x1="142.5" y1="64.5" x2="112" y2="40" gradientUnits="userSpaceOnUse">
<stop offset="0.233339" stop-color="#00C950"/>
<stop offset="0.709568" stop-color="#155DFC"/>
</linearGradient>
</defs>
</svg>
